<?xml version="1.0" encoding="utf-8"?>
<!-- Generator: Adobe Illustrator 25.0.0, SVG Export Plug-In . SVG Version: 6.00 Build 0)  -->
<svg version="1.1" id="Layer_2" xmlns="http://www.w3.org/2000/svg" xmlns:xlink="http://www.w3.org/1999/xlink" x="0px" y="0px"
	 viewBox="0 0 127 45" style="enable-background:new 0 0 127 45;" xml:space="preserve">
<style type="text/css">
	.st0{fill:#FFFFFF;}
	.st1{fill:#0AB45B;}
</style>
<g>
	<polygon class="st0" points="0,13.3 14.7,13.3 14.7,17.8 5.1,17.8 5.1,20.9 13.7,20.9 13.7,25.1 5.1,25.1 5.1,31.6 0,31.6 	"/>
	<path class="st0" d="M39.3,13.3h8.7c2.8,0,4.7,0.7,6,2c1.1,1,1.6,2.5,1.6,4.3v0.1c0,2.8-1.5,4.7-3.8,5.6l4.4,6.4h-5.9l-3.7-5.5
		h-0.1h-2.2v5.5h-5.1L39.3,13.3L39.3,13.3z M47.7,22.1c1.7,0,2.7-0.8,2.7-2.2v-0.1c0-1.4-1-2.2-2.8-2.2h-3.3v4.4L47.7,22.1
		L47.7,22.1z"/>
	<polygon class="st0" points="58.1,13.3 72.8,13.3 72.8,17.6 63.1,17.6 63.1,20.4 71.9,20.4 71.9,24.4 63.1,24.4 63.1,27.3 
		72.9,27.3 72.9,31.6 58.1,31.6 	"/>
	<polygon class="st0" points="80.9,22.3 74.9,13.3 80.7,13.3 83.9,18.5 87.2,13.3 92.9,13.3 86.9,22.3 93.2,31.6 87.4,31.6 
		83.9,26.1 80.3,31.6 74.6,31.6 	"/>
	<path class="st0" d="M98.2,23L98.2,23c0-2.1,1.6-3.9,3.9-3.9c1.5,0,2.5,0.7,3.1,1.6l-1.8,1.3c-0.3-0.5-0.7-0.8-1.4-0.8
		c-0.8,0-1.4,0.7-1.4,1.6v0c0,0.9,0.6,1.7,1.5,1.7c0.6,0,1-0.3,1.4-0.7l1.7,1.2c-0.7,1-1.6,1.7-3.2,1.7C99.8,26.8,98.2,25,98.2,23"
		/>
	<path class="st0" d="M105.9,23L105.9,23c0-2.1,1.7-3.9,4.1-3.9c2.3,0,4,1.7,4,3.8v0c0,2.1-1.7,3.8-4.1,3.8
		C107.6,26.8,105.9,25,105.9,23 M111.5,23L111.5,23c0-0.9-0.7-1.7-1.6-1.7c-0.9,0-1.5,0.7-1.5,1.6v0c0,0.9,0.7,1.6,1.6,1.6
		C110.9,24.6,111.5,23.8,111.5,23"/>
	<path class="st0" d="M115.2,19.3h2.6v1c0.5-0.6,1.1-1.1,2.2-1.1c1,0,1.7,0.4,2.1,1.2c0.6-0.7,1.4-1.2,2.4-1.2c1.6,0,2.5,1,2.5,2.7
		v4.8h-2.6v-4c0-0.8-0.4-1.2-1-1.2s-1.1,0.4-1.1,1.2v4h-2.5v-4c0-0.8-0.4-1.2-1-1.2s-1,0.4-1,1.2v4h-2.6L115.2,19.3L115.2,19.3z"/>
	<path class="st1" d="M16.1,22.6c0-5.9,3.7-9.7,9.4-9.7c5.8,0,9.4,3.7,9.4,9.5c0,5.9-3.7,9.7-9.4,9.7C19.7,32.1,16.1,28.5,16.1,22.6
		 M29.5,22.5c0-3.9-1.1-7-4.1-7c-3,0-3.9,3.1-3.9,7s1.1,7,4.1,7C28.5,29.5,29.5,26.4,29.5,22.5"/>
	<polygon class="st1" points="37.1,23.6 26.3,23.6 25.7,25.2 36.5,25.2 	"/>
	<polygon class="st1" points="37.6,20.2 26.8,20.2 26.2,21.9 37,21.9 	"/>
	<path class="st0" d="M94.6,25.2c0-0.4,0.1-0.7,0.4-0.9c0.3-0.3,0.6-0.4,0.9-0.4s0.7,0.1,0.9,0.4c0.3,0.3,0.4,0.6,0.4,0.9
		s-0.1,0.7-0.4,0.9c-0.3,0.3-0.6,0.4-0.9,0.4s-0.7-0.1-0.9-0.4C94.7,25.9,94.6,25.6,94.6,25.2"/>
</g>
</svg>
