<svg version="1.2" xmlns="http://www.w3.org/2000/svg" viewBox="0 0 1531 335" width="1531" height="335">
	<title>StoneX_Dark-svg</title>
	<style>
		.s0 { fill: #040c17 } 
	</style>
	<g id="Layer">
		<path id="Layer" class="s0" d="m99.7 333.8c-40.9 0-67.5-6.7-88-15.7l-11.4-69.3h8.5l8.6 16.6c20.4 39.4 45.6 56.5 86 56.5 46.2 0 72.3-22.8 72.3-60.4 0-33.2-19-50.3-74.1-69.3-62.3-21.4-93.2-45.1-93.2-98.8 0-53.7 48.9-93.1 109.8-93.1 38 0 59.9 5.2 80.8 13.8l11.4 72.2h-9l-8.1-17.1c-18.6-39.4-42.3-57-78.4-57-38.1 0-60.4 22.8-60.4 55.1 0 32.3 18 48.9 70.3 66.5 68.5 22.8 97.5 49 97.5 101.7 0 58.8-56.1 98.3-122.7 98.3z"/>
		<path id="Layer" class="s0" d="m386.8 305.8c-19 16.6-39 27.5-63.7 27.5-36.6 0-55.6-16.6-55.6-55.6v-152h-33.7v-8.5l36.1-13.8 35.6-71.3h14.8v73.1h61.3v20.5h-61.3v150.5c0 22.3 10.9 33.3 28.9 33.3 12.4 0 20.5-3.4 31.9-11.5l5.7 7.6z"/>
		<path id="Layer" fill-rule="evenodd" class="s0" d="m515.2 334.7c-66.1 0-115-41.8-115-120.2 0-66 47.5-116.8 115.5-116.8 68 0 115 41.8 115 120.2 0 66-48 116.8-115.5 116.8zm-6.2-225.1c-32.3 0-50.9 24.7-50.9 91.7 0 73.6 23.8 121.5 63.2 121.5 32.8 0 50.9-24.7 50.9-91.6 0-73.7-23.3-121.6-63.2-121.6z"/>
		<path id="Layer" class="s0" d="m912.1 330c-10.5 0-37.6-0.5-58-0.5-20.5 0-47.1 0.5-58.5 0.5v-7.2l7.6-1.4c20.4-3.8 24.2-9.9 24.2-51.7v-89.8c0-34.6-15.2-51.7-41.8-51.7-18.6 0-34.3 7.1-48 17.6v123.9c0 41.8 3.3 48 24.2 51.8l7.6 1.4v7.1c-11.4 0-38-0.4-58.5-0.4-20.4 0-47.5 0.4-58.4 0.4v-7.1l9-1.4c19-2.9 22.8-10 22.8-55.6v-99.3c0-24.7-4.2-31.3-20.9-39.4l-11.4-5.7v-5.2l79.4-17.6 6.1 4.3v31.8c25.2-21.3 48.5-35.6 78-35.6 42.3 0 65.1 22.8 65.1 70.8v95.9c0 46.5 3.8 52.2 23.3 55.6l8.1 1.4v7.1z"/>
		<path id="Layer" fill-rule="evenodd" class="s0" d="m978.6 198.4c1.4 65.1 36.6 105 84.2 105 26.1 0 44.2-9.5 63.7-29l6.1 4.8c-24.7 34.2-56.6 55.6-97.9 55.6-60.4 0-105.5-41.4-105.5-112.1 0-76.5 57.5-124.9 113.2-124.9 61.3 0 90.7 34.2 92.2 97.3h-156zm99.9-16.1c-1.4-48-18.6-72.3-46.2-72.3-30.9 0-50.8 26.6-53.7 72.3z"/>
		<path id="Layer" class="s0" d="m1468.3 329.9c-8.3 0-49.2-0.8-65.4-0.8-16.3 0-68.2 0.8-76.9 0.8v-6.6l14.5-2.1c14-2.2 20.2-6.2 20.2-14.5 0-7.5-4.4-16.3-14.5-32.1l-51-78.1-51 70.2c-11.9 16.3-17.6 29-17.6 37.8 0 8.8 5.3 14.5 19.8 16.7l15 2.1v6.6c-8.4 0-44.8-0.8-61.1-0.8-16.3 0-42.7 0.8-51 0.8v-6.6l7.9-1.3c20.7-3.5 40-21 55.4-40.8l74.3-97.1-73.4-107.5c-17.1-25.1-29-36.5-47-39.6l-9.7-1.7v-6.6c8.4 0 49.3 0.9 65.5 0.9 16.2 0 67.2-0.9 76-0.9v6.6l-14.5 2.2c-12.3 1.7-19.3 6.2-19.3 14.5 0 7.4 4.4 16.2 14.5 32l43.9 67.6 43.1-60.1c11.4-16.3 17.6-29 17.6-37.3 0-8.8-5.7-14.5-19.8-16.7l-15-2.2v-6.6c8.4 0 44.9 0.9 61.1 0.9 16.2 0 42.6-0.9 51-0.9v6.6l-7.9 1.3c-20.7 3.6-39.2 19.4-55.4 40.9l-66.4 86.9 80.4 117.7c17.2 25 29 36.4 47.1 39.5l9.6 1.7c0 0 0 6.6 0 6.6z"/>
	</g>
	<path id="Layer" fill-rule="evenodd" class="s0" d="m1505.3 78c-3.6 0-6.9-0.6-9.8-1.9-3-1.2-5.6-3-7.9-5.3-2.2-2.2-4-4.8-5.2-7.9-1.3-3-1.9-6.3-1.9-9.7 0-3.5 0.6-6.8 1.9-9.8q1.9-4.5 5.2-7.8c2.3-2.2 4.9-4 7.9-5.2 3-1.3 6.2-1.9 9.8-1.9 3.5 0 6.7 0.6 9.7 1.9q4.6 1.9 7.9 5.2 3.4 3.3 5.3 7.8c1.2 3 1.8 6.3 1.8 9.8 0 3.5-0.6 6.7-1.8 9.7q-1.9 4.5-5.3 7.9c-2.2 2.3-4.8 4.1-7.9 5.3-3 1.3-6.2 1.9-9.7 1.9zm0-3.4q4.5 0 8.3-1.6 3.9-1.6 6.7-4.5c2-2 3.5-4.2 4.5-6.8 1.1-2.6 1.6-5.5 1.6-8.5 0-3-0.5-5.8-1.6-8.4-1-2.6-2.5-4.8-4.5-6.7q-2.8-2.9-6.7-4.5-3.8-1.6-8.3-1.6c-3.1 0-5.9 0.5-8.5 1.6-2.6 1.1-4.8 2.5-6.7 4.5-1.9 1.9-3.4 4.1-4.5 6.7-1.1 2.6-1.6 5.4-1.6 8.4 0 3 0.5 5.9 1.6 8.5 1.1 2.6 2.6 4.9 4.5 6.8q2.8 2.9 6.7 4.5c2.7 1.1 5.4 1.6 8.5 1.6zm-10.9-6.7v-29.3h12.7c3.4 0 6 0.8 7.8 2.4q2.7 2.4 2.7 6.4c0 2.7-0.9 4.8-2.7 6.4q-1.8 1.7-4.7 2.2 0.9 0.2 1.7 0.6c1 0.5 1.8 1.4 2.6 2.6l4.9 8.7h-7l-5.2-9.4c-0.4-0.8-0.9-1.3-1.4-1.6-0.5-0.3-1.2-0.4-2.1-0.4h-3v11.3h-6.2zm15.8-11.9q-0.8-0.1-1.6-0.1l-1.2 0.4q1.5 0 2.8-0.3zm-9.7-4.1h5.8q2.6 0 3.8-1 1.3-1 1.3-3.2c0-1.4-0.4-2.6-1.3-3.2-0.8-0.6-2.1-1-3.8-1h-5.8z"/>
</svg>