<svg version="1.2" xmlns="http://www.w3.org/2000/svg" viewBox="0 0 1516 1432" width="1516" height="1432">
	<title>StoneX_Dark-svg</title>
	<style>
		.s0 { fill: #040c17 } 
	</style>
	<g id="Layer">
		<path id="Layer" class="s0" d="m1515.8 1431.6c-39.8 0-233.9-4.1-311-4.1-77.1 0-323.5 4.1-365.2 4.1v-31.2l68.8-10.4c66.9-10.5 96-29.3 96-68.8 0-35.4-20.8-77.3-68.8-152.4l-242.1-371.4-242.2 333.8c-56.4 77.3-83.6 137.6-83.6 179.5 0 41.9 25 68.8 94.1 79.3l71 10.4v31.2c-39.8 0-212.8-4.1-290.1-4.1-77.3 0-202.6 4.1-242.2 4.1v-31.2l37.6-6.3c98.2-16.7 190-100.1 263-194.1l352.8-461.2-348.5-511.1c-81.4-118.9-137.7-173.2-223.4-187.7l-45.8-8.3v-31.2c39.7 0 233.8 4.1 310.9 4.1 77.1 0 319.4-4.1 361.1-4.1v31.2l-68.8 10.5c-58.4 8.2-91.9 29.3-91.9 68.8 0 35.3 20.9 77.2 68.9 152.3l208.6 321.2 204.6-285.8c54.3-77.3 83.6-137.6 83.6-177.3 0-41.7-27.2-68.8-94-79.2l-71-10.5v-31.2c39.7 0 213 4.1 290.1 4.1 77 0 202.3-4.1 242.1-4.1v31.2l-37.6 6.3c-98.1 16.8-185.9 91.8-262.9 194.1l-315.3 413 381.9 559.1c81.4 118.9 137.7 173.2 223.5 187.7l45.8 8.3c0 0 0 31.2 0 31.4z"/>
	</g>
</svg>